<svg xmlns="http://www.w3.org/2000/svg" viewBox="0 0 85 79" enable-background="new 0 0 85 79"><path d="M1.3 1.3h76.7v76.4h-76.7v-76.4z"/><path fill="#FFFFFF" d="M79.3 79h-79.3v-79h79.3v79zm-76.7-2.6h74v-73.8h-74v73.8zm13.8-30.4v-28.3h10.6c5.5 0 8.5 2.8 8.5 6.9v.6c0 2.8-1.6 5.1-4 6 2.9.5 4.9 2.9 4.9 6.5v.5c0 4.5-3.4 7.8-9.4 7.8h-10.6zm13.6-20.4c0-2.6-1.7-3.2-4.8-3.2h-3.2v6.8h3.7c3.2 0 4.5-1.3 4.5-3.2v-.5h-.2zm-4.5 15.4c3.5 0 5.3-.9 5.3-3.7s-1.7-3.7-4.5-3.7h-4.4v7.4h3.7-.1zm16.4 5v-28.3h10.1c7.2 0 10.4 4.1 10.4 9.6v9.5c0 5.2-3.2 9.2-10.4 9.2h-10.1zm15.1-17.9c0-3.5-1.5-5.5-5.6-5.5h-3.9v18.5h3.9c4 0 5.6-1.8 5.6-5.2v-7.8zM20.8 61.1c-.1 0-.1 0-.1-.1v-2.9h-2.9v2.8c0 .1-.1.1-.1.1h-1.2c-.1 0-.1 0-.1-.1v-7.2c0-.1.1-.1.1-.1h1.2c.1 0 .1 0 .1.1v2.9h2.9v-2.9c0-.1.1-.1.1-.1h1.2c.1 0 .1 0 .1.1v7.2c0 .1-.1.1-.1.1h-1.2v.1zm9.1-2.5c0 1.6-1 2.7-2.9 2.7s-2.9-1.1-2.9-2.7v-2.3c0-1.6 1-2.7 2.9-2.7s2.9 1.2 2.9 2.7v2.3zm-1.4-2.2c0-1-.4-1.6-1.5-1.6s-1.5.6-1.5 1.6v1.9c0 1 .4 1.6 1.5 1.6s1.5-.6 1.5-1.6v-1.9zm3.5 4.7v-7.3c0-.1.1-.1.1-.1h1.2c.1 0 .1 0 .1.1v6.1h2.9c.1 0 .1.1.1.1v.9c0 .1 0 .1-.1.1h-4.3v.1zm6.1 0v-7.5h2.7c2 0 2.8 1.1 2.8 2.6v2.6c0 1.3-.9 2.4-2.8 2.4 0-.1-2.7-.1-2.7-.1zm4-4.7c0-1-.4-1.5-1.5-1.5h-1v4.9h1c1.1 0 1.5-.5 1.5-1.5v-1.9zm3.7 4.7c-.1 0-.1 0-.1-.1v-7.2c0-.1.1-.1.1-.1h1.2c.1 0 .1.1.1.1v7.1c0 .1 0 .1-.1.1h-1.2v.1zm7.6 0l-.3-.1-1.7-3.5c-.4-.7-.6-1.5-.9-2.2.1.6.1 1.3.1 2.1v3.5c0 .1-.1.1-.1.1h-1.1c-.1 0-.1 0-.1-.1v-7.2c0-.1 0-.1.1-.1h1.7c.1 0 .1 0 .1.1l1.7 3.7c.4.9.6 1.5.9 2.2 0-.7-.1-1.7-.1-2.3v-3.5s0-.1.1-.1h1.2c.1 0 .1.1.1.1v7.2c0 .1 0 .1-.1.1h-1.6zm8-3h-1.2c-.1 0-.1-.1-.1-.1v-.9c0-.1.1-.1.1-.1h2.4c.1 0 .1 0 .1.1v1.5c0 1.5-1.1 2.6-2.8 2.6-1.8 0-2.9-1-2.9-2.6v-2.6c0-1.5 1.1-2.6 2.9-2.6 1.7 0 2.3.9 2.7 1.8.1.1 0 .2-.1.4l-1 .2c-.1 0-.2 0-.2-.1-.1-.6-.5-1-1.2-1-1 0-1.3.5-1.3 1.5v2.2c0 1.1.6 1.5 1.5 1.5s1.3-.4 1.3-1.5v-.4l-.2.1z"/><path fill="#EC1C24" d="M71 17.7h14v14h-14v-14z"/><path fill="#FFFFFF" d="M76.6 20.4h2.8v8.6h-2.8v-8.6zm-2.8 2.8h8.5v2.8h-8.5v-2.8z"/></svg>