<svg xmlns="http://www.w3.org/2000/svg" viewBox="0 0 154 154" enable-background="new 0 0 154 154"><path fill="#323232" d="M0 0h154v154h-154z"/><path fill-rule="evenodd" clip-rule="evenodd" fill="#BAAE80" d="M2 2v150h150v-150h-150zm148 148h-146v-146h146v146z"/><path fill="#BAA871" d="M55.8 127.6l-.7-1.2c-.2-.3-.4-.4-.4-.4l.4-.4 1.3-1.9h-1l-1.1 1.6c-.1.2-.3.2-.5.2h-.4v-1.3c0-.4-.2-.6-.6-.6h-.9v.8h.4c.1 0 .2.1.2.2v3.8h.9v-2.1h.4c.2 0 .4 0 .5.2l.8 1.5c.2.4.3.4.8.4h.7v-.8h-.3c-.4.2-.5.1-.5 0zm7.3-1.5c.4-.2.7-.5.7-1.1 0-.8-.6-1.2-1.6-1.2h-2.5v.8h.6v3.4c0 .4.2.5.5.5h1.5c1 0 1.7-.5 1.7-1.3 0-.5-.4-1-.9-1.1zm-2-1.7h.9c.6 0 .8.2.8.7 0 .4-.3.7-.8.7h-.9v-1.4zm1 3.5h-.8c-.1 0-.2-.1-.2-.2v-1.3h1c.6 0 1 .3 1 .7-.1.5-.4.8-1 .8zm9.2-.3v-2c0-1.1-.4-1.9-2-1.9-.4 0-1.6.1-1.6.9v.5h.9v-.3c0-.3.6-.4.8-.4.7 0 1 .3 1 1.1v.1h-.2c-.8 0-2.9.1-2.9 1.7 0 .9.8 1.4 1.6 1.4 1.1 0 1.5-.9 1.5-.9v.3c0 .3.2.5.6.5h.9v-.8h-.4c-.1 0-.2-.1-.2-.2zm-.9-1.2c0 .7-.5 1.5-1.3 1.5-.6 0-.9-.4-.9-.8 0-.9 1.2-.9 1.9-.9h.2v.2zm7.7-2.7c-1.2 0-1.6.8-1.6.8v-.3c0-.3-.2-.5-.6-.5h-.9v.8h.4c.1 0 .2.1.2.2v5.6h.9v-2.5s.4.8 1.5.8c1.2 0 2.2-1 2.2-2.5 0-1.4-.8-2.4-2.1-2.4zm-.2 4.2c-.9 0-1.3-.8-1.3-1.7 0-1.2.7-1.7 1.4-1.7.8 0 1.3.7 1.3 1.7-.1 1.1-.7 1.7-1.4 1.7zm9.6-4.1h-3.4c-.4 0-.6.2-.6.6v.7h.7v-.3c0-.1.1-.2.2-.2h.9v4h.9v-4h.9c.1 0 .2.1.2.2v.3h.7v-.7c.1-.4-.1-.6-.5-.6zm7.8 3.8v-2c0-1.1-.4-1.9-2-1.9-.4 0-1.6.1-1.6.9v.5h.9v-.3c0-.3.6-.4.8-.4.7 0 1 .3 1 1.1v.1h-.2c-.8 0-2.9.1-2.9 1.7 0 .9.8 1.4 1.6 1.4 1.1 0 1.5-.9 1.5-.9v.3c0 .3.2.5.6.5h.9v-.8h-.4c-.2 0-.2-.1-.2-.2zm-.9-1.2c0 .7-.5 1.5-1.3 1.5-.6 0-.9-.4-.9-.8 0-.9 1.2-.9 1.9-.9h.2v.2zm8.7 1.2v-3.2c0-.4-.2-.6-.6-.6h-3.1v.8h.6v.4c0 1.2-.3 2.8-1.1 2.8v.8c1.7 0 2-2.4 2-3.6v-.4h1.1c.1 0 .2.1.2.2v3.2c0 .4.2.6.6.6h.9v-.8h-.4c-.1 0-.2-.1-.2-.2zm-43.4-25.6v-3.9c0-1.7-1.4-3.2-3.2-3.2-1.7 0-3.2 1.4-3.2 3.2v3.9h1.3v-3.9c0-1 .8-1.9 1.9-1.9 1 0 1.9.8 1.9 1.9v3.9h1.3zm41.9 0v-3.9c0-1.7-1.4-3.2-3.2-3.2-1.7 0-3.2 1.4-3.2 3.2v3.9h1.3v-3.9c0-1 .8-1.9 1.9-1.9 1 0 1.9.8 1.9 1.9v3.9h1.3zm5.8-9.6v-17.2l1.4-2.3h1.5v-1.3h-1.2v-4.3h.1l-.1-.7v-.6h-.1l-2-14.2c.9-.1 1.5-.9 1.5-1.8 0-1-.8-1.8-1.8-1.8s-1.8.8-1.8 1.8c0 .9.7 1.7 1.6 1.8l-1.1 7.9-6.3-18.7v-4c.7-.3 1.1-.9 1.1-1.7 0-.8-.5-1.4-1.1-1.7v-3.3h-1.3v3.3c-.7.3-1.1.9-1.1 1.7 0 .8.5 1.4 1.1 1.7v3.9l-6.4 19-1.2-8.1c.9-.1 1.6-.9 1.6-1.8 0-1-.8-1.8-1.8-1.8s-1.8.8-1.8 1.8c0 .9.7 1.7 1.6 1.8l-2 14.2h-.1v.6l-.1.7h.1v4.3h-1.3v1.3h1.6l1.3 2.3v15.8l-11.3-18.9v-3.5h1.5v1.8h1.3v-1.8h1.5v-1.3h-1.5v-1.8h-1.3v1.8h-1.5v-4.3h-1.3v4.3h-1.5v-1.8h-1.3v1.8h-1.5v1.3h1.5v1.8h1.3v-1.8h1.5v3.5l-11.2 18.7v-15.6l1.4-2.3h1.5v-1.3h-1.2v-4.3h.1l-.1-.7v-.6h-.1l-2-14.2c.9-.1 1.6-.9 1.6-1.8 0-1-.8-1.8-1.8-1.8s-1.8.8-1.8 1.8c0 .9.7 1.7 1.6 1.8l-1.1 7.9-6.4-18.7v-4c.7-.3 1.1-.9 1.1-1.7 0-.8-.5-1.4-1.1-1.7v-3.3h-1.3v3.3c-.7.3-1.1.9-1.1 1.7 0 .8.5 1.4 1.1 1.7v3.9l-6.4 19-1.2-8.1c.9-.1 1.6-.9 1.6-1.8 0-1-.8-1.8-1.8-1.8s-1.8.8-1.8 1.8c0 .9.7 1.7 1.6 1.8l-2 14.2h-.1v.6l-.1.7h.1v4.3h-1.3v1.3h1.6l1.3 2.3v17.2h-21v1.3h21.1v8.3h1.3v-8.3h15.5v8.3h1.3v-8.3h23.8v8.3h1.3v-8.3h15.5v8.3h1.3v-8.3h18.9v-1.3h-19zm-43-42.4c0-.3.2-.5.5-.5s.5.2.5.5-.2.5-.5.5c-.2 0-.5-.3-.5-.5zm.5 9.4l.9 6.6h-1.8l.9-6.6zm-1 7.8h2.1v4.3h-2.1v-4.3zm-7.3-32.3c.3 0 .5.2.5.5s-.2.5-.5.5-.5-.2-.5-.5.2-.5.5-.5zm-.1 8.2l6.6 19.4-.5 3.5h-12.2l-.4-3.3 6.5-19.6zm6.1 24.1v4.3h-2.1v-4.3h2.1zm-3.4 0v4.3h-2.1v-4.3h2.1zm-3.3 0v4.3h-2.1v-4.3h2.1zm-3.4 0v4.3h-2.1v-4.3h2.1zm-4.8-17.2c0-.3.2-.5.5-.5s.5.2.5.5-.2.5-.5.5-.5-.3-.5-.5zm.5 9.4l.9 6.6h-1.9l1-6.6zm-1.1 12.2v-4.3h2.1v4.3h-2.1zm17.1 20.8h-15.4v-3.6h15.5v3.6zm-9.6-4.8v-8.2c0-1 .8-1.9 1.9-1.9 1 0 1.9.8 1.9 1.9v8.2h-3.8zm9.7-12.9c-.1.1-.1.2-.1.3v3h-2.3v1.3h2.3v2.1h-1.4v1.3h1.4v2.1h-2.3v1.2h2.3v1.6h-4.6v-8.2c0-1.7-1.4-3.2-3.2-3.2-1.7 0-3.2 1.4-3.2 3.2v8.2h-4.6v-1.6h2.4v-1.3h-2.4v-2.1h1.5v-1.3h-1.5v-2.1h2.4v-1.2h-2.4v-2.9c0-.1 0-.2-.1-.3l-1-1.8h17.8l-1 1.7zm13.7 17.7h-1.2v-.8c0-.3.3-.6.6-.6s.6.3.6.6v.8zm1.3 0v-.8c0-1-.8-1.9-1.9-1.9-1 0-1.9.8-1.9 1.9v.8h-9.5l11.3-18.9 11.3 18.9h-9.3zm27-42.4c0-.3.2-.5.5-.5s.5.2.5.5-.2.5-.5.5c-.2 0-.5-.3-.5-.5zm.5 9.4l.9 6.6h-1.9l1-6.6zm-8.3-24.5c.3 0 .5.2.5.5s-.2.5-.5.5-.5-.2-.5-.5.2-.5.5-.5zm0 8.2l6.6 19.4-.5 3.5h-12.3l-.5-3.2 6.7-19.7zm6 24.1v4.3h-2.1v-4.3h2.1zm-3.3 0v4.3h-2.1v-4.3h2.1zm-3.4 0v4.3h-2.1v-4.3h2.1zm-3.3 0v4.3h-2.1v-4.3h2.1zm-4.9-17.2c0-.3.2-.5.5-.5s.5.2.5.5-.2.5-.5.5-.5-.3-.5-.5zm.5 9.4l.9 6.6h-1.9l1-6.6zm-1 12.2v-4.3h2.1v4.3h-2.1zm17.1 20.8h-15.5v-3.6h15.5v3.6zm-9.7-4.8v-8.2c0-1 .8-1.9 1.9-1.9 1 0 1.9.8 1.9 1.9v8.2h-3.8zm9.7-12.9c-.1.1-.1.2-.1.3v3h-2.3v1.3h2.3v2.1h-1.4v1.3h1.4v2.1h-2.3v1.2h2.3v1.6h-4.6v-8.2c0-1.7-1.4-3.2-3.2-3.2-1.7 0-3.2 1.4-3.2 3.2v8.2h-4.6v-1.6h2.4v-1.3h-2.4v-2.1h1.5v-1.3h-1.5v-2.1h2.4v-1.2h-2.4v-2.9c0-.1 0-.2-.1-.3l-1-1.8h17.8l-1 1.7zm-.4-3.1v-4.3h2.1v4.3h-2.1zm-32.4 12.1c0 2.5 1.8 4.6 4 4.6s4-2.1 4-4.6c0-2.5-1.8-4.6-4-4.6s-4 2.1-4 4.6zm4-3.3c1.5 0 2.8 1.5 2.8 3.3 0 1.8-1.2 3.3-2.8 3.3-1.5 0-2.8-1.5-2.8-3.3 0-1.8 1.3-3.3 2.8-3.3zm0 15.8c3.2 0 5.8 2.6 5.8 5.8h1.3c0-3.9-3.2-7.1-7.1-7.1-3.9 0-7.1 3.2-7.1 7.1h1.3c0-3.2 2.6-5.8 5.8-5.8zm-37.4 20.1v-12.8c0-1-.4-1.4-1.4-1.4h-12.2v1.4h1.5v14.6h1.6v-14.6h8.5c.3 0 .5.2.5.5v12.8c0 1 .4 1.4 1.4 1.4h1.7v-1.4h-1c-.4 0-.6-.2-.6-.5zm14.8-3.8c0-3.6-1.9-6-5-6-3 0-4 2.3-4 2.3v-.8c0-.8-.4-1.2-1.4-1.2h-1.6v1.3h1c.3 0 .5.2.5.5v14.2h1.6v-6.5s1 2.2 3.7 2.2c3.1 0 5.2-2.4 5.2-6zm-5.3 4.6c-2.4 0-3.6-2.3-3.6-4.6 0-3.3 1.8-4.6 3.7-4.6 2.1 0 3.6 1.8 3.6 4.6 0 2.9-1.6 4.6-3.7 4.6zm16.2-.7v-5.5c0-2.5-.9-4.4-4.5-4.4-1 0-3.7.3-3.7 1.9v1.1h1.5v-.7c0-.8 1.6-1 2.2-1 2.1 0 2.9.8 2.9 3.2v.2h-.6c-2 0-7 .1-7 4 0 2.2 2 3.4 3.9 3.4 2.9 0 3.9-2.5 3.8-2.5v.9c0 .9.4 1.3 1.4 1.3h1.6v-1.3h-1c-.4-.1-.5-.3-.5-.6zm-1.6-3.5c0 2-1.3 4.3-3.5 4.3-1.7 0-2.6-1.1-2.6-2.2 0-2.6 3.6-2.6 5.4-2.6h.7v.5zm12.2 2.1c0-1.6-.9-2.5-2.2-2.8 1-.4 1.8-1.2 1.8-2.6 0-2.1-1.6-3.1-3.8-3.1-1.8 0-3.6.7-3.6 2.1v1h1.4v-.5c0-.8 1.2-1.2 2.1-1.2 1.3 0 2.4.6 2.4 1.9 0 1.3-1 2-2.6 2h-1.2v1.2h1.4c1.8 0 2.8.7 2.8 2 0 1.6-1.4 2.2-2.8 2.2-1.7 0-2.8-1-3.1-1.4l-.8 1.1c.7.7 2 1.7 4 1.7 2.2-.1 4.2-1.3 4.2-3.6zm10.9-.3c0-2.2-1.5-3.5-3.9-3.5h-2.5v-3.2c0-.9-.4-1.3-1.4-1.3h-1.6v1.3h1c.3 0 .5.2.5.5v8.4c0 .9.4 1.3 1.3 1.3h2.8c2.3 0 3.8-1.4 3.8-3.5zm-4 2.3h-2c-.3 0-.5-.2-.5-.5v-4.1h2.4c1.6 0 2.4.9 2.4 2.3.1 1.4-.7 2.3-2.3 2.3zm15.8-.1h-.6c-.6 0-.8-.1-1.1-.5l-2.1-3.4c-.4-.7-.8-.8-.8-.8s.3-.1.9-.8l3.3-4.5h-1.8l-3 4.1c-.3.5-.8.6-1.3.6h-1.1v-3.3c0-1-.4-1.4-1.4-1.4h-1.6v1.3h1c.3 0 .5.2.5.5v9.6h1.6v-5.4h1.1c.5 0 .9.1 1.2.5l2.3 3.8c.5 1 .8 1.1 2 1.1h.9v-1.4zm12.1-.5v-9.6h-1.5l-5.6 7.6c-.5.6-1.2 1.7-1.2 1.8 0-.1.1-1.1.1-1.8v-6.2c0-1-.4-1.3-1.4-1.3h-1.6v1.3h1c.3 0 .5.2.5.5v9.6h1.5l5.7-7.6c.5-.6 1.2-1.7 1.2-1.8 0 .1-.1 1.1-.1 1.8v6.2c0 1 .4 1.4 1.4 1.4h1.5v-1.3h-.9c-.4-.1-.6-.3-.6-.6zm13.8 0v-9.6h-1.5l-5.6 7.6c-.5.6-1.2 1.7-1.2 1.8 0-.1.1-1.1.1-1.8v-6.2c0-1-.4-1.3-1.4-1.3h-1.6v1.3h1c.3 0 .5.2.5.5v9.6h1.5l5.7-7.6c.5-.6 1.2-1.7 1.2-1.8 0 .1-.1 1.1-.1 1.8v6.2c0 1 .4 1.4 1.4 1.4h1.5v-1.3h-.9c-.4-.1-.6-.3-.6-.6zm-7.9-14.3v.4c0 1.7 1.5 2.7 3 2.7s3-1 3-2.7v-.4h-1.3v.3c0 1.1-.8 1.6-1.7 1.6-.9 0-1.7-.5-1.7-1.6v-.3h-1.3z"/></svg>